<svg width="128" height="128" viewBox="0 0 128 128" fill="none" xmlns="http://www.w3.org/2000/svg">
<path d="M125.03 125.035C123.118 126.934 120.532 128 117.836 128C115.141 128 112.554 126.934 110.642 125.035L79.4676 93.8621C68.8881 100.872 56.0819 103.702 43.5336 101.804C30.9853 99.9051 19.5896 93.4133 11.5574 83.5878C3.52515 73.7622 -0.570807 61.3035 0.0641591 48.6287C0.699125 35.9539 6.01975 23.9668 14.9937 14.9932C23.9677 6.01953 35.9552 0.6991 48.6304 0.0641568C61.3057 -0.570786 73.7649 3.52503 83.5908 11.5569C93.4167 19.5888 99.9087 30.9842 101.807 43.532C103.706 56.0799 100.876 68.8856 93.8655 79.4647L125.03 110.638C126.932 112.551 128 115.139 128 117.836C128 120.534 126.932 123.122 125.03 125.035ZM66.6215 89.1976C76.1209 85.3584 83.8494 78.1184 88.2996 68.8896C92.7497 59.6609 93.6023 49.1054 90.691 39.2821C87.7797 29.4588 81.3134 21.0723 72.5533 15.7583C63.7932 10.4444 53.3676 8.5842 43.3102 10.5406C33.2527 12.4969 24.2848 18.1296 18.1556 26.3398C12.0264 34.55 9.17553 44.7489 10.1591 54.9472C11.1427 65.1455 15.8902 74.6116 23.4755 81.4992C31.0608 88.3868 40.94 92.2018 51.1859 92.2002C56.474 92.2085 61.7225 91.1888 66.6215 89.1976Z" fill="black"/>
<path d="M72.8275 53.7216L60.2152 41.1278L41.3936 60.5013L53.7441 72.8533L53.7456 72.8519C54.9984 74.1054 56.4862 75.0993 58.1237 75.7768C59.7613 76.4543 61.5165 76.802 63.2887 76.8C70.7496 76.8 76.7998 70.7499 76.7998 63.2889C76.8019 61.5109 76.452 59.7501 75.7703 58.1081C75.0885 56.466 74.0883 54.9752 72.8275 53.7216Z" fill="#A52A2A"/>
<path d="M48.2433 29.174C45.7578 26.8754 42.4967 25.5991 39.1112 25.6C35.5278 25.6 32.0912 27.0235 29.5574 29.5573C27.0236 32.0911 25.6001 35.5277 25.6001 39.1111C25.6001 42.6368 26.9626 45.8382 29.1756 48.2432L29.1557 48.2631L41.3939 60.5013L60.2156 41.1278L48.2433 29.174Z" fill="#46C2FF"/>
</svg>
