<svg width="16" height="16" viewBox="0 0 16 16" fill="none" xmlns="http://www.w3.org/2000/svg">
<path d="M15.6288 15.6294C15.3897 15.8668 15.0664 16 14.7295 16C14.3926 16 14.0693 15.8668 13.8302 15.6294L9.93345 11.7328C8.61102 12.609 7.01024 12.9628 5.4417 12.7254C3.87316 12.4881 2.44869 11.6767 1.44467 10.4485C0.440644 9.22028 -0.0713508 7.66293 0.00801989 6.07859C0.0873906 4.49424 0.752468 2.99586 1.87422 1.87415C2.99596 0.752441 4.4944 0.0873875 6.07881 0.0080196C7.66321 -0.0713483 9.22061 0.440628 10.4489 1.44462C11.6771 2.44861 12.4886 3.87302 12.7259 5.44151C12.9632 7.00999 12.6094 8.6107 11.7332 9.93309L15.6288 13.8297C15.8666 14.0688 16 14.3923 16 14.7295C16 15.0667 15.8666 15.3902 15.6288 15.6294ZM8.32768 11.1497C9.51511 10.6698 10.4812 9.76479 11.0374 8.6112C11.5937 7.45761 11.7003 6.13818 11.3364 4.91027C10.9725 3.68236 10.1642 2.63404 9.06916 1.96979C7.97414 1.30555 6.67095 1.07302 5.41377 1.31757C4.15659 1.56212 3.0356 2.2662 2.26945 3.29247C1.5033 4.31875 1.14694 5.59362 1.26989 6.8684C1.39284 8.14318 1.98627 9.32645 2.93444 10.1874C3.8826 11.0484 5.1175 11.5252 6.39824 11.525C7.05926 11.5261 7.71532 11.3986 8.32768 11.1497Z" fill="black"/>
<path d="M9.10356 6.7152L7.52703 5.14098L5.17432 7.56266L6.71814 9.10666L6.71832 9.10649C6.87492 9.26317 7.06089 9.38741 7.26559 9.4721C7.47029 9.55678 7.68968 9.60025 7.91121 9.6C8.84383 9.6 9.60009 8.84373 9.60009 7.91111C9.60036 7.68886 9.55662 7.46876 9.4714 7.26351C9.38618 7.05825 9.26116 6.8719 9.10356 6.7152Z" fill="#A52A2A"/>
<path d="M6.03059 3.64676C5.71991 3.35943 5.31227 3.19988 4.88908 3.2C4.44116 3.2 4.01159 3.37794 3.69486 3.69466C3.37813 4.01139 3.2002 4.44097 3.2002 4.88889C3.2002 5.3296 3.37051 5.72978 3.64713 6.0304L3.64464 6.03289L5.17442 7.56267L7.52713 5.14098L6.03059 3.64676Z" fill="#46C2FF"/>
</svg>
