<svg width="48" height="48" viewBox="0 0 48 48" fill="none" xmlns="http://www.w3.org/2000/svg">
<path d="M46.8864 46.8882C46.1691 47.6003 45.1993 48 44.1885 48C43.1777 48 42.2079 47.6003 41.4906 46.8882L29.8003 35.1983C25.833 37.8269 21.0307 38.8883 16.3251 38.1763C11.6195 37.4644 7.34608 35.03 4.33401 31.3454C1.32193 27.6608 -0.214053 22.9888 0.0240597 18.2358C0.262172 13.4827 2.2574 8.98757 5.62265 5.62244C8.98789 2.25732 13.4832 0.262162 18.2364 0.0240588C22.9896 -0.214045 27.6618 1.32188 31.3465 4.33385C35.0313 7.34582 37.4658 11.6191 38.1777 16.3245C38.8897 21.03 37.8283 25.8321 35.1996 29.7993L46.8864 41.4891C47.5997 42.2065 48 43.177 48 44.1886C48 45.2003 47.5997 46.1708 46.8864 46.8882ZM24.983 33.4491C28.5453 32.0094 31.4435 29.2944 33.1123 25.8336C34.7811 22.3728 35.1009 18.4145 34.0091 14.7308C32.9174 11.0471 30.4925 7.90211 27.2075 5.90938C23.9224 3.91665 20.0128 3.21907 16.2413 3.95271C12.4698 4.68635 9.10679 6.79859 6.80834 9.87742C4.50989 12.9563 3.44083 16.7809 3.80967 20.6052C4.17851 24.4295 5.95882 27.9794 8.80331 30.5622C11.6478 33.1451 15.3525 34.5757 19.1947 34.5751C21.1778 34.5782 23.146 34.1958 24.983 33.4491Z" fill="black"/>
<path d="M27.3102 20.1456L22.5806 15.4229L15.5225 22.688L20.1539 27.32L20.1545 27.3195C20.6243 27.7895 21.1822 28.1622 21.7963 28.4163C22.4104 28.6703 23.0686 28.8007 23.7331 28.8C26.531 28.8 28.7998 26.5312 28.7998 23.7333C28.8006 23.0666 28.6694 22.4063 28.4137 21.7905C28.1581 21.1748 27.783 20.6157 27.3102 20.1456Z" fill="#A52A2A"/>
<path d="M18.0913 10.9403C17.1592 10.0783 15.9363 9.59965 14.6668 9.6C13.323 9.6 12.0343 10.1338 11.0841 11.084C10.1339 12.0342 9.6001 13.3229 9.6001 14.6667C9.6001 15.9888 10.111 17.1893 10.9409 18.0912L10.9334 18.0987L15.5228 22.688L22.5809 15.4229L18.0913 10.9403Z" fill="#46C2FF"/>
</svg>
